<svg xmlns="http://www.w3.org/2000/svg" viewBox="0 0 2200 1623" role="img" aria-label="Laila Care"><g transform="translate(-1108 -247)"><path fill-rule="evenodd" fill="#1E3A5F" d="M 1460.248 254.820 C 1459.009 254.996, 1457.555 255.963, 1457.016 256.970 C 1455.730 259.373, 1456.083 278.769, 1457.444 280.463 C 1458.216 281.424, 1463.613 281.942, 1477.500 282.388 C 1500.201 283.118, 1507.179 283.745, 1512.500 285.531 C 1514.700 286.270, 1519.870 287.165, 1523.990 287.521 C 1528.690 287.927, 1533.382 289.068, 1536.586 290.584 C 1539.395 291.913, 1542.275 293, 1542.986 293 C 1543.697 293, 1549.279 295.520, 1555.390 298.601 C 1567.141 304.525, 1577.281 312.061, 1583.028 319.141 C 1588.463 325.839, 1595 335.284, 1595.003 336.445 C 1595.005 337.025, 1596.580 340.624, 1598.503 344.443 C 1600.426 348.261, 1602 352.093, 1602 352.957 C 1602 353.822, 1602.894 356.197, 1603.986 358.236 C 1605.079 360.274, 1606.464 365.218, 1607.065 369.221 C 1607.665 373.224, 1609.264 382.575, 1610.618 390 L 1613.079 403.500 1613.022 499.500 C 1612.970 586.734, 1611.984 661.855, 1610.496 692 C 1609.617 709.820, 1609.618 1243.693, 1610.497 1250.742 C 1610.926 1254.175, 1611.901 1257.503, 1612.664 1258.136 C 1614.485 1259.647, 1629.048 1258.790, 1647.500 1256.086 C 1663.797 1253.698, 1696.817 1252.003, 1726 1252.056 C 1747.483 1252.096, 1798.421 1254.323, 1801 1255.335 C 1802.841 1256.058, 1823.383 1258.228, 1831.232 1258.529 C 1835.361 1258.687, 1837.318 1258.321, 1838.232 1257.221 C 1839.250 1255.994, 1839.615 1171.474, 1840.082 829.096 C 1840.610 442.258, 1840.814 401.708, 1842.278 394 C 1848.347 362.033, 1851.559 352.468, 1862.350 334.221 C 1873.248 315.795, 1890.749 301.627, 1912.218 293.852 C 1926.193 288.791, 1923.139 289.478, 1954.500 284.344 C 1959.450 283.533, 1971.242 282.562, 1980.704 282.185 C 1990.326 281.802, 1998.364 281.041, 1998.945 280.459 C 1999.515 279.887, 2000.096 274.613, 2000.236 268.740 C 2000.442 260.106, 2000.189 257.760, 1998.913 256.484 C 1997.484 255.055, 1971.999 254.887, 1729.917 254.703 C 1582.838 254.591, 1461.487 254.644, 1460.248 254.820M 1610.930 1440.070 C 1609.228 1441.772, 1609.151 1444.692, 1609.555 1491.687 C 1609.791 1519.084, 1610.431 1548.025, 1610.977 1556 C 1612.403 1576.819, 1612.303 1627.143, 1610.828 1630.685 C 1610.183 1632.233, 1609.312 1638.450, 1608.893 1644.500 C 1607.312 1667.322, 1606.220 1676.607, 1604.719 1680 C 1603.868 1681.925, 1602.199 1686.650, 1601.011 1690.500 C 1599.822 1694.349, 1596.416 1702.525, 1593.440 1708.667 C 1586.846 1722.280, 1576.407 1734.059, 1563.453 1742.502 C 1551.228 1750.470, 1534.618 1756.357, 1521 1757.548 C 1516.875 1757.909, 1511.700 1758.786, 1509.500 1759.498 C 1507.213 1760.237, 1497.147 1761.101, 1486 1761.513 C 1475.275 1761.911, 1465.938 1762.688, 1465.250 1763.240 C 1463.396 1764.730, 1463.527 1783.363, 1465.403 1784.919 C 1467.388 1786.567, 2096.660 1786.527, 2098.645 1784.879 C 2100.479 1783.357, 2100.581 1763.477, 2098.760 1762.352 C 2097.340 1761.474, 2085.490 1759.899, 2059 1757.066 C 2048.825 1755.978, 2038.250 1754.418, 2035.500 1753.599 C 2032.750 1752.781, 2026.907 1751.586, 2022.515 1750.945 C 2013.973 1749.698, 1985.310 1742.749, 1982.307 1741.198 C 1981.313 1740.685, 1978.025 1739.693, 1975 1738.994 C 1971.975 1738.296, 1967.700 1736.936, 1965.500 1735.973 C 1939.830 1724.732, 1930.308 1719.065, 1913.206 1704.854 C 1894.215 1689.072, 1880.168 1671.559, 1867.987 1648.480 C 1865.090 1642.991, 1862.143 1637.825, 1861.438 1637 C 1860.733 1636.175, 1859.839 1634.150, 1859.451 1632.500 C 1859.063 1630.850, 1857.486 1626.125, 1855.945 1622 C 1851.342 1609.675, 1848.373 1599.165, 1846.060 1587 C 1844.858 1580.675, 1843.253 1572.800, 1842.494 1569.500 C 1841.735 1566.200, 1840.848 1557.466, 1840.522 1550.092 C 1839.889 1535.735, 1839.235 1533.709, 1831.656 1522.610 C 1830.195 1520.471, 1829 1518.143, 1829 1517.437 C 1829 1516.731, 1827.961 1514.881, 1826.691 1513.327 C 1824.775 1510.981, 1814.985 1493.712, 1803.262 1472 C 1799.746 1465.489, 1796.288 1462.245, 1791.612 1461.072 C 1778.297 1457.733, 1766.811 1454.809, 1762 1453.535 C 1754.509 1451.550, 1737.976 1448.280, 1723.500 1445.922 C 1716.900 1444.847, 1708.791 1443.496, 1705.481 1442.921 C 1689.975 1440.226, 1656.060 1438.045, 1631.617 1438.170 C 1614.831 1438.256, 1612.533 1438.467, 1610.930 1440.070M 2761.769 537.565 C 2761.565 537.769, 2747.921 538.418, 2731.449 539.008 C 2701.268 540.088, 2694.415 540.609, 2672.500 543.485 C 2665.900 544.352, 2655.550 545.458, 2649.500 545.943 C 2643.450 546.429, 2634.225 547.731, 2629 548.837 C 2623.775 549.943, 2616.575 551.144, 2613 551.506 C 2609.425 551.868, 2604.250 552.750, 2601.500 553.465 C 2598.750 554.180, 2590.650 555.982, 2583.500 557.470 C 2576.350 558.958, 2568.475 560.780, 2566 561.518 C 2563.525 562.256, 2558.125 563.397, 2554 564.053 C 2549.875 564.710, 2544.475 566.032, 2542 566.993 C 2539.525 567.953, 2534.390 569.273, 2530.590 569.927 C 2526.789 570.580, 2522.311 571.822, 2520.637 572.688 C 2518.964 573.553, 2512.849 575.524, 2507.048 577.067 C 2491.784 581.129, 2483.549 583.543, 2482.277 584.329 C 2481.664 584.708, 2477.268 586.146, 2472.509 587.526 C 2467.749 588.905, 2462.106 590.926, 2459.967 592.017 C 2457.829 593.107, 2454.997 594, 2453.675 594 C 2452.352 594, 2450.023 594.981, 2448.500 596.179 C 2446.976 597.377, 2443.428 599.149, 2440.615 600.115 C 2427.279 604.697, 2404.418 614.373, 2393.616 620.010 C 2389.280 622.272, 2383.908 624.853, 2381.677 625.746 C 2379.447 626.638, 2373.545 629.586, 2368.561 632.296 C 2363.578 635.006, 2353.041 640.571, 2345.146 644.662 C 2337.252 648.753, 2327.978 653.877, 2324.538 656.050 C 2321.098 658.222, 2317.825 660, 2317.264 660 C 2316.704 660, 2315.656 660.710, 2314.935 661.578 C 2314.215 662.446, 2311.572 664.247, 2309.063 665.581 C 2306.553 666.914, 2303.375 668.840, 2302 669.860 C 2300.625 670.880, 2290.950 677.438, 2280.500 684.432 C 2253.046 702.808, 2253.276 702.637, 2232.500 720.309 C 2201.507 746.674, 2179.082 768.742, 2156.093 795.500 C 2144.753 808.700, 2132.555 823.466, 2128.987 828.313 C 2125.419 833.160, 2120.680 839.460, 2118.456 842.313 C 2116.232 845.166, 2110.892 852.900, 2106.589 859.500 C 2102.285 866.100, 2097.939 872.625, 2096.929 874 C 2095.920 875.375, 2093.192 879.650, 2090.866 883.500 C 2078.738 903.582, 2076 908.193, 2076 908.538 C 2076 908.745, 2071.725 916.770, 2066.500 926.371 C 2061.275 935.972, 2057 944.091, 2057 944.414 C 2057 944.736, 2053.199 952.812, 2048.554 962.360 C 2043.909 971.907, 2039.795 981.020, 2039.412 982.609 C 2039.030 984.199, 2037.877 987.176, 2036.851 989.224 C 2034.430 994.059, 2030.387 1004.832, 2027.987 1012.845 C 2026.942 1016.335, 2025.673 1019.710, 2025.168 1020.345 C 2024.663 1020.980, 2022.150 1028.250, 2019.584 1036.500 C 2017.018 1044.750, 2014.451 1052.850, 2013.881 1054.500 C 2013.311 1056.150, 2011.970 1060.875, 2010.902 1065 C 2009.834 1069.125, 2008.091 1075.200, 2007.028 1078.500 C 2005.965 1081.800, 2004.402 1088.100, 2003.554 1092.500 C 2002.706 1096.900, 2001.606 1102.075, 2001.108 1104 C 1999.118 1111.693, 1997.784 1117.871, 1996.462 1125.500 C 1995.700 1129.900, 1994.362 1137.100, 1993.488 1141.500 C 1992.614 1145.900, 1991.517 1154.675, 1991.050 1161 C 1990.584 1167.325, 1989.514 1178.800, 1988.672 1186.500 C 1984.880 1221.209, 1984.337 1245.892, 1986.445 1287.780 C 1986.766 1294.150, 1985.275 1293.333, 2014.500 1303.164 C 2021.100 1305.384, 2032.350 1309.684, 2039.500 1312.720 C 2046.650 1315.757, 2054.163 1318.633, 2056.195 1319.113 C 2058.227 1319.593, 2061.552 1321.114, 2063.584 1322.493 C 2065.616 1323.872, 2067.749 1325, 2068.324 1325 C 2068.898 1325, 2071.198 1325.857, 2073.434 1326.904 C 2075.670 1327.952, 2079.525 1329.758, 2082 1330.918 C 2084.475 1332.078, 2087.625 1333.689, 2089 1334.499 C 2093.168 1336.952, 2106.417 1343, 2107.624 1343 C 2108.246 1343, 2109.355 1343.722, 2110.087 1344.605 C 2110.820 1345.488, 2116.388 1348.640, 2122.460 1351.610 C 2128.532 1354.580, 2134.625 1357.682, 2136 1358.504 C 2137.375 1359.325, 2142.325 1361.768, 2147 1363.933 C 2151.675 1366.097, 2159.205 1370.260, 2163.734 1373.184 C 2168.262 1376.108, 2175.817 1380.750, 2180.521 1383.500 C 2185.226 1386.250, 2191.871 1390.218, 2195.288 1392.317 C 2198.704 1394.417, 2203.902 1397.281, 2206.838 1398.681 L 2212.177 1401.228 2220.338 1399.072 C 2236.390 1394.834, 2236.464 1394.799, 2236.856 1391.500 C 2237.279 1387.937, 2235.409 1373.744, 2233.496 1366 C 2232.749 1362.975, 2231.606 1354.667, 2230.957 1347.539 C 2230.307 1340.410, 2229.150 1330.735, 2228.384 1326.039 C 2225.018 1305.396, 2222.535 1248.433, 2223.282 1209 C 2223.915 1175.570, 2225.733 1130.241, 2226.489 1129.018 C 2227.390 1127.561, 2229.755 1112.193, 2231.490 1096.535 C 2232.402 1088.304, 2233.428 1081.116, 2233.772 1080.560 C 2234.115 1080.005, 2234.731 1077.289, 2235.142 1074.525 C 2237.849 1056.283, 2241.496 1038.325, 2246.010 1021 C 2247.085 1016.875, 2248.930 1009.675, 2250.110 1005 C 2254.686 986.874, 2256.783 979.173, 2259.507 970.500 C 2262.872 959.788, 2269.084 941.610, 2273.178 930.500 C 2274.799 926.100, 2276.986 919.909, 2278.038 916.742 C 2279.089 913.575, 2280.824 909.300, 2281.893 907.242 C 2282.961 905.184, 2285.528 899.675, 2287.597 895 C 2292.224 884.540, 2309.582 850.477, 2312.134 846.846 C 2313.160 845.386, 2314 843.815, 2314 843.354 C 2314 842.894, 2315.650 840.038, 2317.666 837.009 C 2324.979 826.019, 2325.933 824.439, 2327.439 820.818 C 2328.281 818.793, 2329.405 816.868, 2329.936 816.540 C 2330.467 816.211, 2333.929 811.343, 2337.628 805.721 C 2341.327 800.100, 2345.961 793.627, 2347.927 791.338 C 2349.892 789.050, 2353.975 783.707, 2357 779.467 C 2368.208 763.755, 2400.899 728.673, 2418.005 714 C 2421.532 710.975, 2425.602 707.375, 2427.050 706 C 2431.291 701.974, 2447.599 688.844, 2454.996 683.500 C 2462.999 677.718, 2473.632 670.704, 2483 665.025 C 2488.775 661.525, 2494.735 657.644, 2496.245 656.400 C 2497.754 655.156, 2500.004 653.823, 2501.245 653.438 C 2502.485 653.053, 2504.750 651.857, 2506.279 650.780 C 2507.807 649.704, 2510.606 648.395, 2512.498 647.873 C 2514.390 647.351, 2517.189 645.898, 2518.719 644.645 C 2520.249 643.392, 2523.525 641.339, 2526 640.083 C 2539.316 633.325, 2544.319 630.965, 2552.500 627.583 C 2557.450 625.537, 2563.975 622.780, 2567 621.457 C 2573.728 618.515, 2584.393 614.809, 2597 611.031 C 2621.909 603.568, 2634.574 600, 2636.152 600 C 2637.102 600, 2643.194 598.705, 2649.689 597.122 C 2656.185 595.540, 2666.450 593.700, 2672.500 593.034 C 2678.550 592.368, 2687.775 590.989, 2693 589.970 C 2718.871 584.923, 2812.927 585.216, 2844.500 590.441 C 2868.984 594.493, 2877.166 595.985, 2878.112 596.569 C 2878.680 596.920, 2883.914 597.834, 2889.742 598.600 C 2895.569 599.365, 2901.281 600.609, 2902.434 601.364 C 2903.586 602.120, 2906.098 603.048, 2908.015 603.426 C 2917.269 605.254, 2924.705 607.298, 2926.668 608.553 C 2927.861 609.315, 2932.136 610.683, 2936.168 611.593 C 2940.201 612.503, 2945.075 614.040, 2947 615.008 C 2948.925 615.977, 2955.225 618.394, 2961 620.380 C 2972.238 624.245, 2975.475 625.641, 2989.500 632.672 C 3011.456 643.679, 3021.098 648.879, 3023.220 650.858 C 3025.187 652.693, 3039.903 663.302, 3049.077 669.500 C 3058.976 676.188, 3073.742 688.096, 3081.558 695.694 C 3093.118 706.933, 3116.988 732.285, 3120.919 737.500 C 3130.349 750.012, 3138.121 761.076, 3146.297 773.630 C 3151.359 781.402, 3155.950 788.422, 3156.500 789.231 C 3162.616 798.223, 3166.441 805.207, 3181.015 834 C 3185.169 842.207, 3191 855.590, 3191 856.916 C 3191 857.556, 3191.912 859.868, 3193.027 862.053 C 3195.241 866.393, 3203 889.304, 3203 891.502 C 3203 892.915, 3207.914 905.549, 3209.320 907.750 C 3210.378 909.408, 3224.150 909.450, 3225.800 907.800 C 3226.715 906.885, 3227.024 883.917, 3227.103 811.050 C 3227.160 758.497, 3227.519 697.725, 3227.902 676 C 3228.284 654.275, 3228.268 635.799, 3227.867 634.943 C 3226.680 632.414, 3209.943 624.390, 3187 615.350 C 3168.556 608.083, 3163.657 606.225, 3161 605.487 C 3159.625 605.105, 3156.025 603.786, 3153 602.556 C 3149.975 601.325, 3145.250 599.527, 3142.500 598.560 C 3139.750 597.593, 3132.550 595.025, 3126.500 592.854 C 3120.450 590.682, 3113.430 588.515, 3110.901 588.037 C 3108.372 587.559, 3101.847 585.806, 3096.401 584.141 C 3078.661 578.717, 3036.902 567.393, 3025.500 564.914 C 3018.640 563.422, 3001.058 559.993, 2987.500 557.501 C 2980.350 556.187, 2972.475 554.652, 2970 554.090 C 2967.525 553.528, 2960.100 552.368, 2953.500 551.513 C 2946.900 550.658, 2938.575 549.292, 2935 548.477 C 2931.425 547.662, 2923.325 546.532, 2917 545.966 C 2910.675 545.400, 2903.340 544.501, 2900.701 543.969 C 2898.061 543.436, 2893.253 543, 2890.016 543 C 2886.779 543, 2882.990 542.567, 2881.597 542.037 C 2877.830 540.605, 2870.312 540.184, 2828 539.036 C 2806.825 538.462, 2783.344 537.812, 2775.820 537.593 C 2768.296 537.373, 2761.973 537.361, 2761.769 537.565M 2299.667 1741.667 C 2298.561 1742.772, 2298.914 1749.242, 2300.396 1755.040 C 2301.163 1758.043, 2302.106 1762.525, 2302.491 1765 C 2303.206 1769.598, 2309.458 1786.412, 2311.360 1788.851 C 2313.643 1791.781, 2348.326 1811, 2351.329 1811 C 2352.142 1811, 2366.041 1817.313, 2370.133 1819.541 C 2374.063 1821.681, 2405.673 1832.598, 2412 1834.001 C 2415.025 1834.671, 2419.525 1836.052, 2422 1837.068 C 2424.475 1838.085, 2430.100 1839.665, 2434.500 1840.579 C 2438.900 1841.492, 2443.865 1843.063, 2445.533 1844.068 C 2447.575 1845.298, 2451.662 1846.125, 2458.033 1846.597 C 2464.166 1847.051, 2468.727 1847.950, 2470.985 1849.149 C 2472.902 1850.167, 2475.602 1851.003, 2476.985 1851.006 C 2478.368 1851.009, 2481.075 1851.436, 2483 1851.955 C 2484.925 1852.474, 2490.325 1853.365, 2495 1853.934 C 2499.675 1854.504, 2506.423 1855.632, 2509.995 1856.442 C 2522.381 1859.247, 2563.911 1861.284, 2596.500 1860.683 C 2629.512 1860.075, 2657.960 1858.610, 2668 1857.001 C 2671.575 1856.428, 2680.800 1855.274, 2688.500 1854.436 C 2706.600 1852.466, 2709.500 1851.854, 2709.500 1850 C 2709.500 1848.714, 2706.293 1848.487, 2687 1848.409 C 2656.428 1848.284, 2632.547 1846.517, 2614.500 1843.044 C 2611.750 1842.514, 2604.550 1841.590, 2598.500 1840.990 C 2584.146 1839.567, 2563.442 1835.777, 2543.424 1830.909 C 2534.582 1828.759, 2526.482 1826.997, 2525.424 1826.994 C 2524.366 1826.990, 2522.243 1826.332, 2520.708 1825.531 C 2519.172 1824.730, 2516.247 1823.802, 2514.208 1823.469 C 2504.416 1821.870, 2495.489 1819.283, 2471.500 1811.092 C 2457.200 1806.209, 2441.900 1801.006, 2437.500 1799.530 C 2433.100 1798.054, 2427.250 1795.781, 2424.500 1794.479 C 2414.328 1789.663, 2408.098 1787, 2407.002 1787 C 2406.383 1787, 2403.542 1785.955, 2400.688 1784.677 C 2392.213 1780.883, 2384.836 1777.875, 2379.195 1775.912 C 2376.277 1774.897, 2372.227 1773.180, 2370.195 1772.097 C 2353.085 1762.981, 2322.178 1748.734, 2308.004 1743.431 C 2300.852 1740.754, 2300.627 1740.707, 2299.667 1741.667"/><path fill-rule="evenodd" class="lc-swoosh" fill="#D4AF37" d="M 1687 1293.982 C 1668.359 1294.847, 1658.415 1295.899, 1640 1298.956 C 1633.675 1300.006, 1625.350 1301.168, 1621.500 1301.539 C 1607.037 1302.931, 1566.059 1311.850, 1543.528 1318.511 C 1530.601 1322.332, 1491.388 1335.853, 1485 1338.691 C 1482.525 1339.791, 1477.350 1341.959, 1473.500 1343.509 C 1469.650 1345.058, 1462.315 1348.278, 1457.201 1350.663 C 1452.086 1353.048, 1447.639 1355, 1447.317 1355 C 1446.271 1355, 1422.147 1367.574, 1408.199 1375.390 C 1374.492 1394.277, 1336.691 1421.220, 1309 1446.094 C 1292.191 1461.193, 1256.596 1497.794, 1245.388 1511.502 C 1229.050 1531.487, 1213.989 1550.802, 1209.133 1558 C 1205.978 1562.675, 1199.568 1572.125, 1194.887 1579 C 1176.229 1606.403, 1149.355 1655.793, 1135.348 1688.423 C 1132.297 1695.531, 1129.424 1702.056, 1128.962 1702.923 C 1128.501 1703.790, 1127.451 1706.525, 1126.629 1709 C 1125.362 1712.813, 1123.124 1718.585, 1119.067 1728.500 C 1118.617 1729.600, 1117.743 1731.759, 1117.125 1733.297 C 1115.746 1736.726, 1115.645 1743, 1116.968 1743 C 1117.500 1743, 1120.891 1737.114, 1124.503 1729.919 C 1133.223 1712.551, 1140.673 1698.479, 1143.609 1693.828 C 1144.924 1691.744, 1146 1689.774, 1146 1689.450 C 1146 1689.126, 1147.350 1686.898, 1149 1684.500 C 1150.650 1682.102, 1152 1679.943, 1152 1679.702 C 1152 1678.149, 1167.808 1653.262, 1175.844 1642.164 C 1181.155 1634.829, 1186.528 1627.277, 1187.784 1625.383 C 1189.041 1623.488, 1193.964 1616.889, 1198.725 1610.719 C 1203.486 1604.549, 1209.318 1596.958, 1211.684 1593.852 C 1224.249 1577.362, 1259.729 1540.621, 1279.500 1523.626 C 1321.767 1487.293, 1381.359 1451.405, 1431 1432.386 C 1433.475 1431.438, 1436.388 1430.063, 1437.473 1429.331 C 1438.557 1428.599, 1440.253 1428, 1441.240 1428 C 1442.227 1428, 1446.964 1426.683, 1451.767 1425.073 C 1473.852 1417.672, 1497.191 1411.460, 1514 1408.508 C 1519.225 1407.591, 1524.892 1406.414, 1526.594 1405.894 C 1528.296 1405.373, 1539.771 1403.838, 1552.094 1402.481 C 1564.417 1401.124, 1577.650 1399.594, 1581.500 1399.081 C 1600.671 1396.525, 1665.905 1397.129, 1680 1399.993 C 1682.475 1400.496, 1693.500 1401.641, 1704.500 1402.538 C 1715.500 1403.435, 1725.794 1404.578, 1727.376 1405.077 C 1728.957 1405.575, 1735.932 1406.908, 1742.876 1408.037 C 1757.076 1410.346, 1779.866 1415.284, 1800 1420.414 C 1819.939 1425.494, 1823.207 1426.446, 1838 1431.488 C 1845.425 1434.019, 1854.875 1437.142, 1859 1438.429 C 1863.125 1439.715, 1868.075 1441.485, 1870 1442.361 C 1874.700 1444.501, 1891.770 1451, 1892.690 1451 C 1896.657 1451, 1990.344 1496.245, 1996.723 1501.242 C 1997.395 1501.768, 2001.445 1503.985, 2005.723 1506.168 C 2017.130 1511.989, 2056.868 1536.284, 2073.327 1547.500 C 2074.134 1548.050, 2083.279 1554.257, 2093.647 1561.293 C 2115.697 1576.254, 2143.212 1594.977, 2147.500 1597.937 C 2164.161 1609.437, 2195.121 1629.461, 2222 1646.121 C 2224.475 1647.655, 2227.625 1649.718, 2229 1650.705 C 2231.968 1652.836, 2247.806 1662, 2248.521 1662 C 2248.794 1662, 2250.881 1663.350, 2253.159 1665 C 2255.436 1666.650, 2257.701 1668, 2258.191 1668 C 2258.680 1668, 2260.300 1668.833, 2261.790 1669.851 C 2267.621 1673.835, 2285.272 1683.556, 2307 1694.751 C 2313.875 1698.293, 2322.425 1702.819, 2326 1704.810 C 2339.303 1712.215, 2390.449 1737.052, 2396.339 1738.966 C 2398.451 1739.652, 2404.773 1742.365, 2410.388 1744.993 C 2427.985 1753.231, 2460.659 1765.824, 2480.500 1772.015 C 2486 1773.731, 2492.975 1775.987, 2496 1777.028 C 2509.775 1781.769, 2547.887 1791.516, 2564.500 1794.548 C 2569.450 1795.452, 2575.300 1796.543, 2577.500 1796.973 C 2579.700 1797.403, 2584.875 1798.284, 2589 1798.929 C 2593.125 1799.575, 2601.900 1800.956, 2608.500 1801.998 C 2632.686 1805.817, 2678.427 1808.449, 2708 1807.724 C 2767.282 1806.270, 2789.276 1803.352, 2846.500 1789.352 C 2856.950 1786.796, 2866.850 1784.137, 2868.500 1783.445 C 2870.150 1782.752, 2877.348 1780.309, 2884.495 1778.015 C 2891.642 1775.722, 2899.517 1773.044, 2901.995 1772.065 C 2904.473 1771.087, 2910.325 1768.840, 2915 1767.072 C 2931.924 1760.674, 2972.770 1741.506, 2988.174 1732.732 C 3008.711 1721.035, 3035.136 1704.129, 3044 1697.016 C 3046.475 1695.030, 3052.278 1690.726, 3056.895 1687.452 C 3071.214 1677.299, 3095.570 1655.610, 3117.880 1633.144 C 3129.639 1621.303, 3140.664 1609.733, 3142.380 1607.432 C 3144.096 1605.132, 3150.941 1596.781, 3157.591 1588.875 C 3164.241 1580.969, 3170.863 1572.700, 3172.308 1570.500 C 3173.752 1568.300, 3177.867 1562.450, 3181.452 1557.500 C 3187.755 1548.797, 3196.227 1536.505, 3198.706 1532.465 C 3204.149 1523.597, 3209.700 1514.841, 3211.998 1511.500 C 3215.473 1506.449, 3235.897 1469.013, 3238.458 1463 C 3239.513 1460.525, 3240.966 1457.790, 3241.688 1456.921 C 3242.409 1456.053, 3243 1455.043, 3243 1454.677 C 3243 1454.311, 3245.083 1449.622, 3247.629 1444.256 C 3250.176 1438.890, 3253.327 1432.250, 3254.633 1429.500 C 3261.333 1415.387, 3277.070 1375.297, 3280.147 1364.500 C 3281.244 1360.650, 3282.993 1355.250, 3284.033 1352.500 C 3285.074 1349.750, 3287.777 1341.200, 3290.040 1333.500 C 3292.304 1325.800, 3294.807 1317.925, 3295.602 1316 C 3297.004 1312.608, 3299.271 1300.938, 3298.649 1300.316 C 3297.558 1299.224, 3293.684 1306.262, 3289.467 1317 C 3283.175 1333.017, 3259.379 1380.981, 3250.127 1396.295 C 3246.207 1402.783, 3243 1408.345, 3243 1408.656 C 3243 1409.786, 3232.391 1426.916, 3220.492 1445 C 3195.914 1482.351, 3162.272 1523.066, 3132.212 1551.839 C 3106.248 1576.692, 3067.350 1606.062, 3038 1622.975 C 3033.875 1625.352, 3027.575 1628.983, 3024 1631.043 C 3001.870 1643.796, 2961.778 1661.305, 2935 1669.911 C 2911.673 1677.408, 2903.121 1679.710, 2871.500 1687.010 C 2865.174 1688.471, 2850.600 1690.639, 2841.500 1691.473 C 2837.650 1691.827, 2830.393 1692.776, 2825.374 1693.583 C 2820.354 1694.390, 2814.954 1695.061, 2813.374 1695.073 C 2811.793 1695.085, 2797.900 1695.331, 2782.500 1695.620 C 2752.870 1696.175, 2736.535 1695.377, 2710.500 1692.101 C 2695.729 1690.243, 2688.230 1689.035, 2669.500 1685.497 C 2665.650 1684.769, 2660.025 1683.714, 2657 1683.152 C 2653.975 1682.591, 2650.150 1681.694, 2648.500 1681.161 C 2646.850 1680.628, 2642.125 1679.427, 2638 1678.493 C 2619.676 1674.343, 2584.382 1663.339, 2561 1654.486 C 2555.775 1652.508, 2549.250 1650.059, 2546.500 1649.044 C 2539.961 1646.630, 2527.804 1641.250, 2512.271 1633.896 C 2507.744 1631.753, 2503.745 1630, 2503.383 1630 C 2502.118 1630, 2444.712 1600.746, 2442.500 1598.974 C 2441.493 1598.167, 2424.208 1588.322, 2414 1582.741 C 2401.776 1576.058, 2392.276 1570.567, 2388.250 1567.859 C 2385.912 1566.287, 2382.014 1563.650, 2379.587 1562 C 2377.159 1560.350, 2374.902 1559, 2374.571 1559 C 2374.240 1559, 2371.389 1557.347, 2368.235 1555.326 C 2365.081 1553.305, 2360.925 1550.680, 2359 1549.492 C 2350.010 1543.944, 2307.363 1515.970, 2283.698 1500.098 C 2275.006 1494.269, 2264.431 1487.269, 2260.198 1484.542 C 2255.964 1481.814, 2243.500 1473.682, 2232.500 1466.470 C 2213.028 1453.702, 2204.144 1448.049, 2166.714 1424.609 C 2163.296 1422.468, 2158.925 1419.727, 2157 1418.518 C 2152.085 1415.428, 2135.827 1406.271, 2129.122 1402.814 C 2126.030 1401.221, 2122.825 1399.509, 2122 1399.011 C 2117.342 1396.201, 2084.137 1378.736, 2076.500 1375.079 C 2046.520 1360.727, 2043.181 1359.202, 2032.500 1354.983 C 2028.650 1353.462, 2020.775 1350.318, 2015 1347.997 C 2002.123 1342.821, 1994.306 1340.083, 1977.500 1334.862 C 1970.350 1332.640, 1960.675 1329.576, 1956 1328.053 C 1941.667 1323.381, 1912.954 1315.803, 1893 1311.425 C 1867.898 1305.918, 1853.666 1303.583, 1805.500 1297.072 C 1782.409 1293.951, 1721.768 1292.370, 1687 1293.982"/><path fill-rule="evenodd" class="lc-foot" fill="#D4AF37" d="M 2852.500 1056.205 C 2848.650 1056.648, 2843.250 1057.248, 2840.500 1057.537 C 2837.750 1057.826, 2834.150 1058.479, 2832.500 1058.988 C 2830.850 1059.497, 2825.560 1060.636, 2820.745 1061.518 C 2796.492 1065.964, 2758.651 1082.290, 2733 1099.375 C 2706.177 1117.241, 2680.456 1143.136, 2663.738 1169.105 C 2655.090 1182.539, 2641.705 1208.208, 2638.640 1217.238 C 2637.756 1219.844, 2636.575 1222.769, 2636.016 1223.738 C 2631.512 1231.550, 2621.120 1272.969, 2618.889 1292 C 2618.277 1297.225, 2617.345 1304.650, 2616.819 1308.500 C 2615.365 1319.134, 2614.756 1360.142, 2615.876 1372 C 2617.966 1394.142, 2620.718 1413.884, 2623.054 1423.500 C 2623.588 1425.700, 2624.891 1431.847, 2625.948 1437.161 C 2630.608 1460.571, 2641.219 1495.692, 2650.523 1518.500 C 2652.542 1523.450, 2655.092 1529.750, 2656.188 1532.499 C 2657.284 1535.248, 2658.790 1538.623, 2659.534 1539.999 C 2660.277 1541.375, 2662.724 1546.248, 2664.970 1550.829 C 2675.682 1572.677, 2692.930 1593.649, 2709.122 1604.512 C 2736.092 1622.607, 2772.790 1628.997, 2795.500 1619.551 C 2809.705 1613.643, 2815.037 1594.539, 2811.004 1564 C 2807.805 1539.776, 2806.848 1518.045, 2807.413 1482.500 C 2807.795 1458.478, 2808.446 1444.005, 2809.369 1439 C 2810.130 1434.875, 2811.511 1427, 2812.438 1421.500 C 2814.622 1408.544, 2818.295 1393.381, 2822.732 1379 C 2835.597 1337.307, 2854.041 1306.108, 2891.694 1262.348 C 2911.556 1239.265, 2923.977 1224.125, 2929.300 1216.507 C 2951.337 1184.975, 2960.577 1165.449, 2965.584 1139.831 C 2967.482 1130.119, 2967.216 1126.472, 2963.695 1114 C 2959.999 1100.909, 2953.278 1090.320, 2943.064 1081.500 C 2930.385 1070.551, 2907.756 1061.077, 2884 1056.773 C 2876.808 1055.470, 2861.313 1055.190, 2852.500 1056.205M 2672.442 1012.868 C 2659.185 1019.139, 2652.291 1035.188, 2657.500 1047.654 C 2660.095 1053.865, 2659.940 1054, 2650.250 1054.002 C 2639.768 1054.003, 2636.036 1055.543, 2631.277 1061.828 C 2628.217 1065.869, 2628 1066.678, 2628 1074.043 C 2628 1081.212, 2628.326 1082.525, 2631.580 1088.444 C 2637.595 1099.386, 2643.575 1103, 2655.670 1103 C 2662.449 1103, 2663.573 1102.695, 2668.572 1099.497 C 2671.855 1097.397, 2675.275 1094.094, 2677.113 1091.247 C 2680.027 1086.735, 2680.152 1086.123, 2679.633 1078.907 C 2679.267 1073.815, 2679.468 1070.932, 2680.243 1070.157 C 2680.913 1069.487, 2684.552 1069, 2688.884 1069 C 2700.735 1069, 2706.880 1065.134, 2712.582 1054.092 C 2714.797 1049.802, 2715.466 1046.953, 2715.814 1040.320 C 2716.225 1032.493, 2716.049 1031.541, 2713.066 1025.483 C 2711.265 1021.825, 2708.492 1017.991, 2706.690 1016.668 C 2696.680 1009.317, 2683.125 1007.813, 2672.442 1012.868M 2750.211 940.099 C 2736.516 945.084, 2727.292 955.089, 2722.182 970.500 C 2715.363 991.068, 2718.168 1011.214, 2729.611 1023.859 C 2734.451 1029.207, 2735.777 1030.050, 2743.052 1032.397 C 2753.719 1035.837, 2759.875 1035.769, 2769.389 1032.106 C 2778.198 1028.714, 2784.121 1024.145, 2791.133 1015.333 C 2798.414 1006.183, 2803.764 990.430, 2802.453 982.004 C 2799.478 962.884, 2796.720 956.118, 2788.659 948.157 C 2779.096 938.713, 2763.181 935.378, 2750.211 940.099M 2879.888 891.361 C 2862.647 896.465, 2850.896 907.594, 2842.597 926.677 C 2837.213 939.060, 2835.632 947.557, 2836.306 960.500 C 2837.018 974.176, 2837.989 978.307, 2842.502 986.883 C 2847.880 997.101, 2855.842 1005.132, 2863.500 1008.060 C 2871.686 1011.191, 2884.328 1011.830, 2891.907 1009.495 C 2901.710 1006.476, 2904.277 1004.758, 2915.039 994.018 C 2926.755 982.324, 2930.357 976.239, 2935.498 959.449 C 2937.989 951.312, 2938.190 949.502, 2937.712 939.500 C 2936.772 919.833, 2930.281 906.347, 2917.525 897.562 C 2911.020 893.082, 2906.289 891.323, 2897.206 890.009 C 2888.507 888.751, 2888.771 888.731, 2879.888 891.361M 3010.793 921.017 C 2983.879 930.351, 2960.812 958.875, 2955.413 989.500 C 2950.972 1014.692, 2956.060 1033.674, 2970.825 1047 C 2985.373 1060.131, 3007.780 1062.650, 3026.500 1053.259 C 3046.570 1043.191, 3066.103 1020.306, 3073.239 998.500 C 3077.630 985.085, 3078.339 980.102, 3077.755 966.800 C 3077.223 954.704, 3077.137 954.339, 3072.580 944.804 C 3067.055 933.245, 3061.508 927.695, 3050 922.211 C 3042.958 918.855, 3041.798 918.617, 3031 918.317 C 3020.349 918.021, 3018.858 918.220, 3010.793 921.017"/></g></svg>